<svg version="1.1" id="Layer_1" xmlns="http://www.w3.org/2000/svg" xmlns:xlink="http://www.w3.org/1999/xlink" x="0px" y="0px"
	 width="100%" viewBox="0 0 80 80" enable-background="new 0 0 80 80" xml:space="preserve">
<path fill="#000000" opacity="1.000000" stroke="none" 
	d="
M57.000000,1.000000 
	C64.973396,1.000000 72.946793,1.000000 80.960098,1.000000 
	C80.960098,27.551331 80.960098,54.102734 80.960098,81.000000 
	C71.982056,81.000000 62.959686,81.000000 53.454254,80.645721 
	C56.897919,77.330833 61.377598,74.871941 64.623978,71.294037 
	C69.708542,65.690224 71.768387,58.652306 70.961449,50.979866 
	C69.944534,41.310886 68.877930,31.647129 67.875443,21.571739 
	C66.282288,16.103653 64.646477,11.044944 62.826134,5.695947 
	C60.761074,3.937105 58.880535,2.468553 57.000000,1.000000 
z"/>
<path fill="#000000" opacity="1.000000" stroke="none" 
	d="
M29.000000,81.000000 
	C19.697710,81.000000 10.395420,81.000000 1.046565,81.000000 
	C1.046565,54.453136 1.046565,27.906178 1.046565,1.000000 
	C8.683809,1.000000 16.373213,1.000000 24.655008,1.360176 
	C18.141743,4.778430 14.996942,10.358018 14.635686,18.159613 
	C13.274027,31.603245 12.220368,44.792969 11.132929,58.359665 
	C11.687050,60.432693 12.243920,62.140274 12.868301,63.822800 
	C15.384831,70.604126 19.773369,75.510818 26.960377,77.984772 
	C27.711309,79.181145 28.355654,80.090569 29.000000,81.000000 
z"/>
<path fill="#384449" opacity="1.000000" stroke="none" 
	d="
M67.832771,21.981117 
	C68.877930,31.647129 69.944534,41.310886 70.961449,50.979866 
	C71.768387,58.652306 69.708542,65.690224 64.623978,71.294037 
	C61.377598,74.871941 56.897919,77.330833 52.985596,80.645721 
	C48.643101,81.000000 44.286201,81.000000 39.465088,80.622971 
	C39.000294,79.491859 38.999710,78.737793 39.420010,77.907013 
	C59.129986,77.057465 69.005203,65.950462 67.235191,46.870560 
	C66.468712,38.608292 65.477539,30.366869 64.993973,22.095028 
	C66.210602,22.043093 67.021690,22.012104 67.832771,21.981117 
z"/>
<path fill="#5C656A" opacity="1.000000" stroke="none" 
	d="
M14.943686,17.905706 
	C14.996942,10.358018 18.141743,4.778430 25.123699,1.360176 
	C26.388889,1.000000 27.777779,1.000000 29.558245,1.397956 
	C29.966963,2.858963 29.984104,3.922015 29.681564,5.167098 
	C23.104280,6.128856 19.733891,9.721714 18.819971,15.905843 
	C18.512093,17.989136 17.759035,20.006636 16.973850,21.812634 
	C16.140068,20.349274 15.541877,19.127491 14.943686,17.905706 
z"/>
<path fill="#3E494F" opacity="1.000000" stroke="none" 
	d="
M38.999126,77.983719 
	C38.999710,78.737793 39.000294,79.491859 39.000439,80.622971 
	C35.969406,81.000000 32.938812,81.000000 29.454109,81.000000 
	C28.355654,80.090569 27.711309,79.181145 27.015253,77.442429 
	C27.025755,75.895195 27.087967,75.177238 27.506416,74.607224 
	C31.574810,75.831345 35.286968,76.907532 38.999126,77.983719 
z"/>
<path fill="#444F54" opacity="1.000000" stroke="none" 
	d="
M56.600006,1.000000 
	C58.880535,2.468553 60.761074,3.937105 62.662918,5.962847 
	C62.107811,7.387915 61.531395,8.255794 60.727425,9.062149 
	C60.499866,9.000626 60.036873,8.911714 59.879566,8.609654 
	C57.477249,7.259828 55.232243,6.212060 52.989727,4.747643 
	C52.994816,3.220662 52.997406,2.110331 53.000000,1.000000 
	C54.066669,1.000000 55.133339,1.000000 56.600006,1.000000 
z"/>
<path fill="#4B555A" opacity="1.000000" stroke="none" 
	d="
M52.543152,1.000000 
	C52.997406,2.110331 52.994816,3.220662 52.550652,4.773720 
	C48.739288,4.813535 45.369492,4.410623 41.999950,3.631747 
	C42.000137,2.503856 42.000069,1.751928 42.000000,1.000000 
	C45.362103,1.000000 48.724201,1.000000 52.543152,1.000000 
z"/>
<path fill="#4F5A5F" opacity="1.000000" stroke="none" 
	d="
M41.539364,1.000000 
	C42.000069,1.751928 42.000137,2.503856 41.573238,3.720910 
	C37.431267,4.452380 33.716255,4.718723 30.001244,4.985066 
	C29.984104,3.922015 29.966963,2.858963 29.974911,1.397956 
	C33.692909,1.000000 37.385818,1.000000 41.539364,1.000000 
z"/>
<path fill="#404B50" opacity="1.000000" stroke="none" 
	d="
M60.954979,9.123672 
	C61.531395,8.255794 62.107811,7.387915 62.847443,6.253136 
	C64.646477,11.044944 66.282288,16.103653 67.875443,21.571739 
	C67.021690,22.012104 66.210602,22.043093 64.757294,21.792471 
	C63.061703,17.381798 62.008343,13.252734 60.954979,9.123672 
z"/>
<path fill="#535D62" opacity="1.000000" stroke="none" 
	d="
M14.635686,18.159613 
	C15.541877,19.127491 16.140068,20.349274 16.977011,22.244072 
	C16.240507,34.604801 12.901586,46.126221 14.388585,58.013275 
	C13.075906,58.003696 12.121308,57.993195 11.166710,57.982697 
	C12.220368,44.792969 13.274027,31.603245 14.635686,18.159613 
z"/>
<path fill="#4B565B" opacity="1.000000" stroke="none" 
	d="
M11.132929,58.359665 
	C12.121308,57.993195 13.075906,58.003696 14.512041,58.370087 
	C16.972498,62.160538 18.951420,65.595093 21.042362,69.340820 
	C23.152981,71.254410 25.151581,72.856850 27.150181,74.459290 
	C27.087967,75.177238 27.025755,75.895195 26.908665,77.155487 
	C19.773369,75.510818 15.384831,70.604126 12.868301,63.822800 
	C12.243920,62.140274 11.687050,60.432693 11.132929,58.359665 
z"/>
<path fill="#DBDBDC" opacity="1.000000" stroke="none" 
	d="
M27.506416,74.607224 
	C25.151581,72.856850 23.152981,71.254410 21.428520,69.354431 
	C27.469730,70.365135 33.183193,72.147057 39.023518,72.808060 
	C42.660015,73.219627 47.153343,72.942833 47.118595,67.216408 
	C54.400738,69.381966 61.656044,64.019920 60.839664,57.453972 
	C64.995018,55.211502 64.822655,52.308361 63.194538,48.690582 
	C63.181217,44.178600 62.917511,39.997158 62.648071,35.423218 
	C62.035522,30.712646 61.428711,26.394579 61.058617,21.786533 
	C60.875843,17.301607 60.456360,13.106660 60.036873,8.911714 
	C60.036873,8.911714 60.499866,9.000626 60.727425,9.062148 
	C62.008343,13.252734 63.061703,17.381798 64.351746,21.813419 
	C65.477539,30.366869 66.468712,38.608292 67.235191,46.870560 
	C69.005203,65.950462 59.129986,77.057465 39.420010,77.907013 
	C35.286968,76.907532 31.574810,75.831345 27.506416,74.607224 
z"/>
<path fill="#F1F4F5" opacity="1.000000" stroke="none" 
	d="
M60.576351,57.708294 
	C61.656044,64.019920 54.400738,69.381966 47.118595,67.216408 
	C47.153343,72.942833 42.660015,73.219627 39.023518,72.808060 
	C33.183193,72.147057 27.469730,70.365135 21.316500,69.043274 
	C18.951420,65.595093 16.972498,62.160538 14.870121,58.369164 
	C12.901586,46.126221 16.240507,34.604801 17.212603,22.485647 
	C17.759035,20.006636 18.512093,17.989136 18.819971,15.905843 
	C19.733891,9.721714 23.104280,6.128856 29.681564,5.167098 
	C33.716255,4.718723 37.431267,4.452380 41.572987,4.096873 
	C45.369492,4.410623 48.739288,4.813535 52.548157,5.190370 
	C55.232243,6.212060 57.477249,7.259828 59.879570,8.609654 
	C60.456360,13.106660 60.875843,17.301607 60.851822,21.492109 
	C57.880917,11.596695 55.148827,9.494135 42.564693,7.988482 
	C35.577766,8.002137 28.825722,7.513955 24.166027,14.136189 
	C22.404171,20.788990 20.417730,27.128487 19.575823,33.616505 
	C19.273859,35.943512 21.732557,38.628750 23.161034,41.438103 
	C27.260954,42.437878 31.131130,43.150043 35.460789,43.957386 
	C40.523468,44.035076 45.155064,44.331993 49.722569,43.919384 
	C55.256893,43.419445 61.050972,42.815548 62.653805,35.815720 
	C62.917511,39.997158 63.181217,44.178600 62.850765,48.521660 
	C58.534271,46.869041 55.405941,47.659924 54.589958,51.791027 
	C53.759521,55.995296 56.645039,57.674801 60.576351,57.708294 
M31.783995,52.787163 
	C30.914253,51.848171 30.090515,50.860352 29.161102,49.984692 
	C28.326141,49.198025 27.433613,48.063580 26.459627,47.942566 
	C25.376850,47.808037 23.869701,48.342751 23.085888,49.125450 
	C21.500669,50.708416 20.279320,52.655769 18.907925,54.452862 
	C17.648695,56.596901 17.080385,59.364048 21.332420,59.408813 
	C21.774046,59.413464 22.572884,60.215916 22.587805,60.668571 
	C22.742395,65.358734 25.780422,64.196686 26.995783,64.072243 
	C29.711845,61.399071 31.458683,59.679821 34.159634,57.021530 
	C33.948879,56.452686 33.287704,54.668118 31.783995,52.787163 
M49.704334,62.088749 
	C51.202194,62.663639 52.682453,63.548981 54.208012,63.635502 
	C54.704041,63.663631 55.995068,61.370163 55.713665,60.556763 
	C55.330727,59.449871 53.362755,57.807175 52.826771,58.050610 
	C51.481674,58.661533 50.559399,60.203403 49.704334,62.088749 
z"/>
<path fill="#475258" opacity="1.000000" stroke="none" 
	d="
M62.648071,35.423218 
	C61.050972,42.815548 55.256893,43.419445 49.722569,43.919384 
	C45.155064,44.331993 40.523468,44.035076 35.460503,43.608776 
	C35.000637,42.467766 35.000538,41.770546 35.461624,41.009396 
	C41.841724,40.601974 47.774170,40.405689 53.674740,39.862869 
	C57.560677,39.505383 59.856464,37.150669 59.024353,33.122829 
	C57.838360,27.382017 56.208546,21.732895 54.726383,15.699100 
	C50.792831,13.851848 46.901203,12.350104 43.008255,10.504152 
	C43.006390,9.471523 43.005848,8.783103 43.005310,8.094683 
	C55.148827,9.494135 57.880917,11.596695 60.615105,21.782089 
	C61.428711,26.394579 62.035522,30.712646 62.648071,35.423218 
z"/>
<path fill="#404F56" opacity="1.000000" stroke="none" 
	d="
M60.839664,57.453972 
	C56.645039,57.674801 53.759521,55.995296 54.589958,51.791027 
	C55.405941,47.659924 58.534271,46.869041 62.600384,48.852203 
	C64.822655,52.308361 64.995018,55.211502 60.839664,57.453972 
z"/>
<path fill="#2498D7" opacity="1.000000" stroke="none" 
	d="
M32.205265,52.835358 
	C33.287704,54.668118 33.948879,56.452686 34.159634,57.021530 
	C31.458683,59.679821 29.711845,61.399071 26.995783,64.072243 
	C25.780422,64.196686 22.742395,65.358734 22.587805,60.668571 
	C22.572884,60.215916 21.774046,59.413464 21.332420,59.408813 
	C17.080385,59.364048 17.648695,56.596901 18.907925,54.452862 
	C20.279320,52.655769 21.500669,50.708416 23.085888,49.125450 
	C23.869701,48.342751 25.376850,47.808037 26.459627,47.942566 
	C27.433613,48.063580 28.326141,49.198025 29.161102,49.984692 
	C30.090515,50.860352 30.914253,51.848171 32.205265,52.835358 
z"/>
<path fill="#5E686D" opacity="1.000000" stroke="none" 
	d="
M22.931290,41.150490 
	C21.732557,38.628750 19.273859,35.943512 19.575823,33.616505 
	C20.417730,27.128487 22.404171,20.788990 24.525249,14.212698 
	C25.749069,14.386106 26.386353,14.737666 26.946117,15.456763 
	C25.613583,22.223713 24.358566,28.623127 23.084246,35.347763 
	C23.675844,36.794197 24.286749,37.915401 24.615868,39.155880 
	C23.866482,39.900265 23.398886,40.525375 22.931290,41.150490 
z"/>
<path fill="#4E595E" opacity="1.000000" stroke="none" 
	d="
M27.023634,15.089227 
	C26.386353,14.737666 25.749069,14.386106 24.752565,13.958036 
	C28.825722,7.513955 35.577766,8.002137 42.564693,7.988482 
	C43.005848,8.783103 43.006390,9.471523 42.565735,10.564953 
	C36.741734,11.063022 31.341269,11.091339 27.023634,15.089227 
z"/>
<path fill="#485358" opacity="1.000000" stroke="none" 
	d="
M23.161036,41.438103 
	C23.398886,40.525375 23.866482,39.900265 24.992764,39.247551 
	C28.767778,39.837742 31.884108,40.455532 35.000435,41.073326 
	C35.000538,41.770546 35.000637,42.467766 35.001022,43.513596 
	C31.131130,43.150043 27.260954,42.437878 23.161036,41.438103 
z"/>
<path fill="#1F96D6" opacity="1.000000" stroke="none" 
	d="
M49.585945,61.730339 
	C50.559399,60.203403 51.481674,58.661533 52.826771,58.050610 
	C53.362755,57.807175 55.330727,59.449871 55.713665,60.556763 
	C55.995068,61.370163 54.704041,63.663631 54.208012,63.635502 
	C52.682453,63.548981 51.202194,62.663639 49.585945,61.730339 
z"/>
<path fill="#D3E9FA" opacity="1.000000" stroke="none" 
	d="
M35.461624,41.009396 
	C31.884108,40.455532 28.767778,39.837742 25.274553,39.128281 
	C24.286749,37.915401 23.675844,36.794197 23.401064,35.176071 
	C24.793661,30.899658 26.010096,27.155979 26.866306,23.331654 
	C27.948084,18.499807 30.867794,15.365510 35.654137,15.218635 
	C42.011093,15.023561 48.395626,15.727145 54.768311,16.044609 
	C56.208546,21.732895 57.838360,27.382017 59.024353,33.122829 
	C59.856464,37.150669 57.560677,39.505383 53.674740,39.862869 
	C47.774170,40.405689 41.841724,40.601974 35.461624,41.009396 
z"/>
<path fill="#BFD2E1" opacity="1.000000" stroke="none" 
	d="
M54.726383,15.699100 
	C48.395626,15.727145 42.011093,15.023561 35.654137,15.218635 
	C30.867794,15.365510 27.948084,18.499807 26.866306,23.331654 
	C26.010096,27.155979 24.793661,30.899658 23.420370,34.850845 
	C24.358566,28.623127 25.613583,22.223713 26.946117,15.456763 
	C31.341269,11.091339 36.741734,11.063022 42.567059,10.909162 
	C46.901203,12.350104 50.792831,13.851848 54.726383,15.699100 
z"/>
</svg>